<svg xmlns="http://www.w3.org/2000/svg" viewBox="0 0 900 280" width="900" height="280">
  <defs>
    <!-- Official GitHub Octocat logo — gilbarbara/logos, viewBox 0 0 256 250 -->
    <symbol id="gh-mark" viewBox="0 0 256 250">
      <path fill="#ffffff" d="M128.00106,0 C57.3172926,0 0,57.3066942 0,128.00106 C0,184.555281 36.6761997,232.535542 87.534937,249.460899 C93.9320223,250.645779 96.280588,246.684165 96.280588,243.303333 C96.280588,240.251045 96.1618878,230.167899 96.106777,219.472176 C60.4967585,227.215235 52.9826207,204.369712 52.9826207,204.369712 C47.1599584,189.574598 38.770408,185.640538 38.770408,185.640538 C27.1568785,177.696113 39.6458206,177.859325 39.6458206,177.859325 C52.4993419,178.762293 59.267365,191.04987 59.267365,191.04987 C70.6837675,210.618423 89.2115753,204.961093 96.5158685,201.690482 C97.6647155,193.417512 100.981959,187.77078 104.642583,184.574357 C76.211799,181.33766 46.324819,170.362144 46.324819,121.315702 C46.324819,107.340889 51.3250588,95.9223682 59.5132437,86.9583937 C58.1842268,83.7344152 53.8029229,70.715562 60.7532354,53.0843636 C60.7532354,53.0843636 71.5019501,49.6441813 95.9626412,66.2049595 C106.172967,63.368876 117.123047,61.9465949 128.00106,61.8978432 C138.879073,61.9465949 149.837632,63.368876 160.067033,66.2049595 C184.49805,49.6441813 195.231926,53.0843636 195.231926,53.0843636 C202.199197,70.715562 197.815773,83.7344152 196.486756,86.9583937 C204.694018,95.9223682 209.660343,107.340889 209.660343,121.315702 C209.660343,170.478725 179.716133,181.303747 151.213281,184.472614 C155.80443,188.444828 159.895342,196.234518 159.895342,208.176593 C159.895342,225.303317 159.746968,239.087361 159.746968,243.303333 C159.746968,246.709601 162.05102,250.70089 168.53925,249.443941 C219.370432,232.499507 256,184.536204 256,128.00106 C256,57.3066942 198.691187,0 128.00106,0 Z"/>
    </symbol>
    <!-- Official Git logo — gilbarbara/logos, viewBox 0 0 256 256 -->
    <symbol id="git-mark" viewBox="0 0 256 256">
      <path fill="#DE4C36" d="M251.172245,116.593517 L139.398753,4.82845302 C132.966433,-1.60948434 122.525852,-1.60948434 116.085106,4.82845302 L92.8753863,28.0381721 L122.317995,57.4807809 C129.16041,55.1690784 137.005593,56.7195763 142.460425,62.1744081 C147.940536,67.6629464 149.479799,75.5755422 147.111919,82.4404282 L175.487156,110.815665 C182.352042,108.450594 190.273064,109.98143 195.755985,115.472777 C203.418591,123.132574 203.418591,135.547794 195.755985,143.213209 C188.09057,150.878624 175.67535,150.878624 168.007126,143.213209 C162.243319,137.443783 160.81922,128.977839 163.737639,121.877008 L137.275245,95.4146135 L137.272436,165.052198 C139.140337,165.979126 140.904309,167.212221 142.460425,168.762719 C150.123031,176.422516 150.123031,188.837736 142.460425,196.508768 C134.79501,204.171375 122.374173,204.171375 114.719993,196.508768 C107.057387,188.837736 107.057387,176.422516 114.719993,168.762719 C116.613174,166.872347 118.804095,165.442631 121.141077,164.481996 L121.141077,94.1955625 C118.804095,93.2405457 116.615983,91.8192558 114.719993,89.9148396 C108.914052,84.1173254 107.518042,75.5980132 110.492639,68.4690928 L81.4713611,39.4421974 L4.83125614,116.076685 C-1.60949009,122.52024 -1.60949009,132.960821 4.83125614,139.398759 L116.604747,251.166631 C123.039876,257.604569 133.477648,257.604569 139.921203,251.166631 L251.172245,139.9184 C257.61018,133.477654 257.61018,123.031455 251.172245,116.593517"/>
    </symbol>
    <linearGradient id="bggrad" x1="0" y1="0" x2="1" y2="0">
      <stop offset="0%" stop-color="#161b22"/>
      <stop offset="38%" stop-color="#0d1117"/>
      <stop offset="100%" stop-color="#0d1117"/>
    </linearGradient>
    <linearGradient id="accent" x1="0" y1="0" x2="0" y2="1">
      <stop offset="0%" stop-color="#DE4C36" stop-opacity="0.18"/>
      <stop offset="100%" stop-color="#161b22" stop-opacity="0"/>
    </linearGradient>
  </defs>

  <!-- Background -->
  <rect width="900" height="280" fill="url(#bggrad)" rx="14"/>
  <!-- Top accent bar (Git orange) -->
  <rect x="0" y="0" width="900" height="4" rx="2" fill="#DE4C36"/>
  <!-- Subtle divider -->
  <line x1="300" y1="20" x2="300" y2="260" stroke="#21262d" stroke-width="1"/>

  <!-- ── Left panel: logos ─────────────────────────────────── -->
  <!-- GitHub Octocat — official logo, 118×115 (256:250 ratio) -->
  <circle cx="107" cy="112" r="68" fill="#21262d" fill-opacity="0.5"/>
  <use href="#gh-mark" x="49" y="56" width="118" height="115"/>
  <text x="107" y="204" text-anchor="middle" font-family="'Segoe UI',sans-serif" font-size="13" font-weight="600" fill="#e6edf3" letter-spacing="2">GITHUB</text>

  <!-- Git logo — official logo, 60×60 (256:256 ratio) -->
  <circle cx="234" cy="108" r="38" fill="#DE4C36" fill-opacity="0.12"/>
  <use href="#git-mark" x="204" y="78" width="60" height="60"/>
  <text x="234" y="168" text-anchor="middle" font-family="'Segoe UI',sans-serif" font-size="11" font-weight="600" fill="#DE4C36" letter-spacing="2">GIT</text>

  <!-- ── Right panel: text ─────────────────────────────────── -->
  <text x="328" y="72" font-family="'Segoe UI',sans-serif" font-size="32" font-weight="800" fill="#e6edf3">GitHub Lab Session</text>
  <text x="328" y="100" font-family="'Segoe UI',sans-serif" font-size="14" fill="#8b949e">Git &amp; GitHub · Source Control · CI/CD · Automation</text>

  <!-- Terminal block -->
  <rect x="328" y="116" width="530" height="92" rx="8" fill="#0d1117" stroke="#21262d" stroke-width="1"/>
  <rect x="328" y="116" width="530" height="22" rx="8" fill="#21262d"/>
  <rect x="328" y="128" width="530" height="10" fill="#21262d"/>
  <circle cx="345" cy="127" r="5" fill="#f85149"/>
  <circle cx="361" cy="127" r="5" fill="#d29922"/>
  <circle cx="377" cy="127" r="5" fill="#3fb950"/>
  <text x="430" y="131" text-anchor="middle" font-family="monospace" font-size="10" fill="#6e7681">terminal</text>
  <text x="340" y="153" font-family="monospace" font-size="11" fill="#6e7681">$</text>
  <text x="354" y="153" font-family="monospace" font-size="11" fill="#58a6ff">git</text>
  <text x="381" y="153" font-family="monospace" font-size="11" fill="#e6edf3">init &amp;&amp; git add . &amp;&amp; git commit -m</text>
  <text x="354" y="171" font-family="monospace" font-size="11" fill="#3fb950">"feat: first commit"</text>
  <text x="340" y="189" font-family="monospace" font-size="11" fill="#6e7681">$</text>
  <text x="354" y="189" font-family="monospace" font-size="11" fill="#58a6ff">gh</text>
  <text x="374" y="189" font-family="monospace" font-size="11" fill="#e6edf3">repo create github-lab --public --push</text>

  <!-- Level pills -->
  <rect x="328" y="224" width="90" height="26" rx="13" fill="#238636" fill-opacity="0.25" stroke="#238636" stroke-width="1"/>
  <text x="373" y="241" text-anchor="middle" font-family="'Segoe UI',sans-serif" font-size="11" font-weight="600" fill="#3fb950">Beginner</text>
  <rect x="428" y="224" width="105" height="26" rx="13" fill="#9a6700" fill-opacity="0.25" stroke="#9a6700" stroke-width="1"/>
  <text x="480" y="241" text-anchor="middle" font-family="'Segoe UI',sans-serif" font-size="11" font-weight="600" fill="#d29922">Intermediate</text>
  <rect x="543" y="224" width="60" height="26" rx="13" fill="#b91c1c" fill-opacity="0.25" stroke="#b91c1c" stroke-width="1"/>
  <text x="573" y="241" text-anchor="middle" font-family="'Segoe UI',sans-serif" font-size="11" font-weight="600" fill="#f85149">Pro</text>

  <!-- Stats -->
  <text x="640" y="237" font-family="'Segoe UI',sans-serif" font-size="12" fill="#6e7681">16 Labs  ·  3 Levels  ·  100% Free</text>
</svg>
